# xmcd CD database file
#
# Track frame offsets:
#	150
#	20455
#	47048
#	62738
#	81610
#	105953
#	135653
#	150274
#	173029
#	204596
#
# Disc length: 3173 seconds
#
# Revision: 0
# Processed by: cddbd v1.5.2PL0 Copyright (c) Steve Scherf et al.
# Submitted via: CDex 1.70beta2
#
DISCID=7a0c630a
DTITLE=Enriquito - Me quito el sombrero
DYEAR=2011
DGENRE=Jazz
TTITLE0=Ya está bien
TTITLE1=Me quito el sombrero
TTITLE2=Mixtolobo
TTITLE3=Sé que lo nuestro
TTITLE4=Eres como la candela
TTITLE5=Querido tribunal
TTITLE6=Parece fácil
TTITLE7=¡Dale Katumba!
TTITLE8=A mis amigos
TTITLE9=A Camarón
EXTD=YEAR: 2011
EXTT0=
EXTT1=
EXTT2=
EXTT3=
EXTT4=
EXTT5=
EXTT6=
EXTT7=
EXTT8=
EXTT9=
PLAYORDER=
